<svg width="353" height="64" viewBox="0 0 353 64" fill="none" xmlns="http://www.w3.org/2000/svg">
<path fill-rule="evenodd" clip-rule="evenodd" d="M0 22.3235V46.1353H7.38494C8.16076 46.1353 8.929 46.2894 9.64585 46.5885C10.3625 46.8876 11.0139 47.3261 11.5624 47.879C12.1111 48.4317 12.5463 49.088 12.8432 49.8102C13.14 50.5325 13.2929 51.3065 13.2929 52.0883V59.5295H31.0167L53.1716 37.2059V13.3941H45.7866C45.0108 13.3941 44.2426 13.2402 43.5257 12.941C42.809 12.6418 42.1577 12.2033 41.6091 11.6506C41.0606 11.0978 40.6253 10.4415 40.3283 9.71927C40.0315 8.99705 39.8787 8.22295 39.8787 7.44118V0H22.1548L0 22.3235ZM25.1088 44.6471H14.7699V28.2765L28.0628 14.8824H38.4017V31.253L25.1088 44.6471Z" fill="#878DD5"/>
<path d="M340.546 18.2246C344.277 18.2246 347.277 19.3854 349.544 21.7071C351.848 23.992 353 27.1981 353 31.3254V49.2908H345.32V32.3758C345.32 29.9803 344.716 28.1562 343.509 26.9033C342.302 25.6134 340.657 24.9686 338.571 24.9686C336.487 24.9686 334.823 25.6134 333.579 26.9033C332.372 28.1562 331.77 29.9803 331.77 32.3758V49.2908H324.089V32.3758C324.089 29.9803 323.485 28.1562 322.279 26.9033C321.072 25.6134 319.425 24.9686 317.341 24.9686C315.22 24.9686 313.538 25.6134 312.294 26.9033C311.088 28.1562 310.483 29.9803 310.483 32.3758V49.2908H302.803V18.6668H310.483V22.3704C311.472 21.0807 312.733 20.0672 314.269 19.3302C315.842 18.5931 317.56 18.2246 319.425 18.2246C321.803 18.2246 323.924 18.7406 325.789 19.7724C327.655 20.7674 329.099 22.2046 330.123 24.0841C331.111 22.3152 332.538 20.8963 334.402 19.8276C336.304 18.7589 338.353 18.2246 340.546 18.2246Z" fill="#878DD5"/>
<path d="M297.145 18.6669V49.2909H289.41V45.4213C288.423 46.7481 287.124 47.7984 285.515 48.5722C283.942 49.3092 282.223 49.6778 280.357 49.6778C277.981 49.6778 275.878 49.1803 274.049 48.1853C272.221 47.1535 270.776 45.6609 269.716 43.7078C268.691 41.7177 268.18 39.3593 268.18 36.6323V18.6669H275.86V35.5267C275.86 37.9589 276.463 39.8384 277.669 41.165C278.877 42.4548 280.523 43.0997 282.607 43.0997C284.729 43.0997 286.392 42.4548 287.599 41.165C288.807 39.8384 289.41 37.9589 289.41 35.5267V18.6669H297.145Z" fill="#878DD5"/>
<path d="M252.11 49.7883C249.623 49.7883 247.391 49.346 245.416 48.4615C243.442 47.5403 241.869 46.3056 240.699 44.7579C239.564 43.2101 238.943 41.4966 238.833 39.6171H246.568C246.715 40.7963 247.282 41.7729 248.27 42.5468C249.293 43.3207 250.555 43.7076 252.054 43.7076C253.518 43.7076 254.652 43.4128 255.455 42.8232C256.297 42.2335 256.718 41.4781 256.718 40.5569C256.718 39.5618 256.206 38.8247 255.182 38.3457C254.194 37.8298 252.603 37.277 250.409 36.6873C248.141 36.1346 246.276 35.5634 244.814 34.9738C243.387 34.3841 242.143 33.4812 241.083 32.2652C240.058 31.049 239.547 29.4091 239.547 27.3454C239.547 25.6503 240.022 24.1025 240.974 22.7021C241.96 21.3016 243.35 20.1962 245.142 19.3854C246.972 18.5746 249.11 18.1692 251.561 18.1692C255.182 18.1692 258.071 19.0906 260.229 20.9331C262.387 22.739 263.576 25.1895 263.794 28.2852H256.444C256.334 27.069 255.822 26.1109 254.907 25.4107C254.03 24.6737 252.841 24.305 251.342 24.305C249.952 24.305 248.872 24.5631 248.104 25.0791C247.373 25.5949 247.007 26.3136 247.007 27.2348C247.007 28.2667 247.52 29.0591 248.543 29.6118C249.568 30.1278 251.159 30.662 253.317 31.2148C255.51 31.7677 257.321 32.3388 258.748 32.9285C260.174 33.5181 261.399 34.4393 262.424 35.6923C263.484 36.9085 264.032 38.5299 264.069 40.5569C264.069 42.3256 263.576 43.9103 262.588 45.3108C261.637 46.711 260.247 47.8166 258.418 48.6274C256.627 49.4013 254.523 49.7883 252.11 49.7883Z" fill="#878DD5"/>
<path d="M212.899 23.089C213.887 21.6886 215.24 20.5277 216.959 19.6065C218.714 18.6484 220.708 18.1692 222.938 18.1692C225.535 18.1692 227.876 18.8142 229.961 20.104C232.082 21.3938 233.745 23.2363 234.953 25.6318C236.197 27.9904 236.817 30.7357 236.817 33.8682C236.817 37.0006 236.197 39.7828 234.953 42.2151C233.745 44.6105 232.082 46.4716 229.961 47.7982C227.876 49.1248 225.535 49.7883 222.938 49.7883C220.708 49.7883 218.733 49.3275 217.014 48.4063C215.332 47.4849 213.96 46.3241 212.899 44.9238V63.8841H205.219V18.6667H212.899V23.089ZM228.973 33.8682C228.973 32.0256 228.589 30.4409 227.821 29.1143C227.09 27.7508 226.102 26.719 224.858 26.0187C223.652 25.3185 222.336 24.9685 220.909 24.9685C219.519 24.9685 218.203 25.337 216.959 26.074C215.751 26.7742 214.765 27.806 213.996 29.1695C213.265 30.533 212.899 32.1361 212.899 33.9787C212.899 35.8213 213.265 37.4244 213.996 38.788C214.765 40.1515 215.751 41.2017 216.959 41.9387C218.203 42.6389 219.519 42.9891 220.909 42.9891C222.336 42.9891 223.652 42.6205 224.858 41.8835C226.102 41.1464 227.09 40.0961 227.821 38.7326C228.589 37.3691 228.973 35.7476 228.973 33.8682Z" fill="#878DD5"/>
<path d="M195.764 15.0184C194.411 15.0184 193.279 14.5946 192.364 13.747C191.486 12.8626 191.047 11.7754 191.047 10.4856C191.047 9.19579 191.486 8.12709 192.364 7.27949C193.279 6.39505 194.411 5.95282 195.764 5.95282C197.119 5.95282 198.234 6.39505 199.111 7.27949C200.025 8.12709 200.483 9.19579 200.483 10.4856C200.483 11.7754 200.025 12.8626 199.111 13.747C198.234 14.5946 197.119 15.0184 195.764 15.0184ZM199.55 18.6667V49.2907H191.87V18.6667H199.55Z" fill="#878DD5"/>
<path d="M172.301 49.7883C169.375 49.7883 166.743 49.1433 164.402 47.8536C162.061 46.5268 160.215 44.6658 158.86 42.2704C157.544 39.8751 156.886 37.1112 156.886 33.9787C156.886 30.8463 157.562 28.0825 158.915 25.687C160.305 23.2917 162.189 21.4491 164.566 20.1593C166.944 18.8326 169.595 18.1692 172.521 18.1692C175.447 18.1692 178.098 18.8326 180.476 20.1593C182.853 21.4491 184.718 23.2917 186.071 25.687C187.461 28.0825 188.156 30.8463 188.156 33.9787C188.156 37.1112 187.443 39.8751 186.016 42.2704C184.626 44.6658 182.726 46.5268 180.311 47.8536C177.934 49.1433 175.264 49.7883 172.301 49.7883ZM172.301 43.0443C173.691 43.0443 174.989 42.7126 176.197 42.0493C177.441 41.3491 178.427 40.3173 179.159 38.9538C179.891 37.5902 180.256 35.9319 180.256 33.9787C180.256 31.0674 179.488 28.8379 177.952 27.2901C176.453 25.7055 174.605 24.9131 172.412 24.9131C170.217 24.9131 168.371 25.7055 166.87 27.2901C165.408 28.8379 164.677 31.0674 164.677 33.9787C164.677 36.89 165.389 39.138 166.815 40.7227C168.279 42.2704 170.108 43.0443 172.301 43.0443Z" fill="#878DD5"/>
<path d="M139.238 49.7883C136.312 49.7883 133.679 49.1433 131.338 47.8536C128.997 46.5268 127.15 44.6658 125.797 42.2704C124.48 39.8751 123.822 37.1112 123.822 33.9787C123.822 30.8463 124.499 28.0825 125.852 25.687C127.242 23.2917 129.125 21.4491 131.502 20.1593C133.88 18.8326 136.531 18.1692 139.457 18.1692C142.383 18.1692 145.035 18.8326 147.412 20.1593C149.789 21.4491 151.654 23.2917 153.007 25.687C154.397 28.0825 155.093 30.8463 155.093 33.9787C155.093 37.1112 154.379 39.8751 152.952 42.2704C151.563 44.6658 149.662 46.5268 147.247 47.8536C144.87 49.1433 142.2 49.7883 139.238 49.7883ZM139.238 43.0443C140.628 43.0443 141.926 42.7126 143.133 42.0493C144.376 41.3491 145.364 40.3173 146.095 38.9538C146.827 37.5902 147.193 35.9319 147.193 33.9787C147.193 31.0674 146.424 28.8379 144.888 27.2901C143.389 25.7055 141.542 24.9131 139.348 24.9131C137.153 24.9131 135.306 25.7055 133.807 27.2901C132.344 28.8379 131.612 31.0674 131.612 33.9787C131.612 36.89 132.325 39.138 133.752 40.7227C135.215 42.2704 137.043 43.0443 139.238 43.0443Z" fill="#878DD5"/>
<path d="M106.174 49.7883C103.248 49.7883 100.615 49.1433 98.2742 47.8536C95.9335 46.5268 94.0865 44.6658 92.7333 42.2704C91.4167 39.8751 90.7584 37.1112 90.7584 33.9787C90.7584 30.8463 91.435 28.0825 92.7882 25.687C94.1779 23.2917 96.0615 21.4491 98.4388 20.1593C100.816 18.8326 103.468 18.1692 106.394 18.1692C109.319 18.1692 111.971 18.8326 114.348 20.1593C116.725 21.4491 118.591 23.2917 119.944 25.687C121.334 28.0825 122.029 30.8463 122.029 33.9787C122.029 37.1112 121.315 39.8751 119.889 42.2704C118.499 44.6658 116.597 46.5268 114.184 47.8536C111.806 49.1433 109.136 49.7883 106.174 49.7883ZM106.174 43.0443C107.564 43.0443 108.862 42.7126 110.069 42.0493C111.313 41.3491 112.3 40.3173 113.032 38.9538C113.763 37.5902 114.129 35.9319 114.129 33.9787C114.129 31.0674 113.361 28.8379 111.825 27.2901C110.325 25.7055 108.478 24.9131 106.284 24.9131C104.089 24.9131 102.242 25.7055 100.743 27.2901C99.2799 28.8379 98.5485 31.0674 98.5485 33.9787C98.5485 36.89 99.2617 39.138 100.688 40.7227C102.151 42.2704 103.98 43.0443 106.174 43.0443Z" fill="#878DD5"/>
<path d="M77.0987 43.1549H89.7166V49.2906H69.4183V10.7067H77.0987V43.1549Z" fill="#878DD5"/>
<path d="M125.848 53.4043C127.794 59.234 133.262 63.4332 139.703 63.4332H140.505C148.576 63.4332 155.119 56.8405 155.119 48.708V47.8759H147.196V48.708C147.196 52.4316 144.2 55.45 140.505 55.45H139.703C137.82 55.45 136.118 54.666 134.902 53.4043H125.848Z" fill="#878DD5"/>
</svg>
