<svg width="16" height="15" viewBox="0 0 16 15" fill="none" xmlns="http://www.w3.org/2000/svg">
<path d="M8 6.80221C7.05714 6.80221 6.25 6.46918 5.57857 5.80313C4.90714 5.13708 4.57143 4.33641 4.57143 3.4011C4.57143 2.4658 4.90714 1.66512 5.57857 0.999074C6.25 0.333025 7.05714 0 8 0C8.94286 0 9.75 0.333025 10.4214 0.999074C11.0929 1.66512 11.4286 2.4658 11.4286 3.4011C11.4286 4.33641 11.0929 5.13708 10.4214 5.80313C9.75 6.46918 8.94286 6.80221 8 6.80221ZM0 15V13.1336C0 12.6656 0.137333 12.2277 0.412 11.82C0.686857 11.4124 1.05648 11.0959 1.52086 10.8705C2.59933 10.3575 3.67848 9.9727 4.75829 9.7161C5.8381 9.4597 6.91867 9.33149 8 9.33149C9.08133 9.33149 10.1619 9.4597 11.2417 9.7161C12.3215 9.9727 13.4007 10.3575 14.4791 10.8705C14.9435 11.0959 15.3131 11.4124 15.588 11.82C15.8627 12.2277 16 12.6656 16 13.1336V15H0ZM1.14286 13.8663H14.8571V13.1336C14.8571 12.8822 14.7754 12.646 14.612 12.4251C14.4488 12.2042 14.2228 12.0174 13.934 11.8647C12.9934 11.4128 12.0236 11.0665 11.0246 10.826C10.0255 10.5855 9.01733 10.4652 8 10.4652C6.98267 10.4652 5.97448 10.5855 4.97543 10.826C3.97638 11.0665 3.00657 11.4128 2.066 11.8647C1.77724 12.0174 1.55124 12.2042 1.388 12.4251C1.22457 12.646 1.14286 12.8822 1.14286 13.1336V13.8663ZM8 5.66851C8.62857 5.66851 9.16667 5.44649 9.61429 5.00246C10.0619 4.55842 10.2857 4.02464 10.2857 3.4011C10.2857 2.77757 10.0619 2.24378 9.61429 1.79975C9.16667 1.35572 8.62857 1.1337 8 1.1337C7.37143 1.1337 6.83333 1.35572 6.38571 1.79975C5.9381 2.24378 5.71429 2.77757 5.71429 3.4011C5.71429 4.02464 5.9381 4.55842 6.38571 5.00246C6.83333 5.44649 7.37143 5.66851 8 5.66851Z" fill="#222222"/>
</svg>
