<svg width="20" height="18" viewBox="0 0 20 18" fill="none" xmlns="http://www.w3.org/2000/svg">
<path d="M4 17.2308C3.1115 17.2308 2.35092 16.9144 1.71825 16.2818C1.08558 15.6491 0.769249 14.8885 0.769249 14C0.769249 13.1115 1.08558 12.3509 1.71825 11.7183C2.35092 11.0856 3.1115 10.7693 4 10.7693C4.8885 10.7693 5.64908 11.0856 6.28175 11.7183C6.91442 12.3509 7.23075 13.1115 7.23075 14C7.23075 14.8885 6.91442 15.6491 6.28175 16.2818C5.64908 16.9144 4.8885 17.2308 4 17.2308ZM16 17.2308C15.1115 17.2308 14.3509 16.9144 13.7182 16.2818C13.0856 15.6491 12.7693 14.8885 12.7693 14C12.7693 13.1115 13.0856 12.3509 13.7182 11.7183C14.3509 11.0856 15.1115 10.7693 16 10.7693C16.8885 10.7693 17.6491 11.0856 18.2817 11.7183C18.9144 12.3509 19.2307 13.1115 19.2307 14C19.2307 14.8885 18.9144 15.6491 18.2817 16.2818C17.6491 16.9144 16.8885 17.2308 16 17.2308ZM4.00075 16.2308C4.61442 16.2308 5.1395 16.0123 5.576 15.5753C6.0125 15.1383 6.23075 14.6129 6.23075 13.9993C6.23075 13.3856 6.01225 12.8605 5.57525 12.424C5.13825 11.9875 4.61292 11.7693 3.99925 11.7693C3.38558 11.7693 2.8605 11.9878 2.424 12.4248C1.9875 12.8618 1.76925 13.3871 1.76925 14.0008C1.76925 14.6144 1.98775 15.1395 2.42475 15.576C2.86175 16.0125 3.38708 16.2308 4.00075 16.2308ZM16.0008 16.2308C16.6144 16.2308 17.1395 16.0123 17.576 15.5753C18.0125 15.1383 18.2307 14.6129 18.2307 13.9993C18.2307 13.3856 18.0123 12.8605 17.5753 12.424C17.1383 11.9875 16.6129 11.7693 15.9992 11.7693C15.3856 11.7693 14.8605 11.9878 14.424 12.4248C13.9875 12.8618 13.7692 13.3871 13.7692 14.0008C13.7692 14.6144 13.9877 15.1395 14.4247 15.576C14.8617 16.0125 15.3871 16.2308 16.0008 16.2308ZM10 7.23076C9.1115 7.23076 8.35092 6.91442 7.71825 6.28176C7.08558 5.64909 6.76925 4.88851 6.76925 4.00001C6.76925 3.11151 7.08558 2.35092 7.71825 1.71826C8.35092 1.08559 9.1115 0.769257 10 0.769257C10.8885 0.769257 11.6491 1.08559 12.2818 1.71826C12.9144 2.35092 13.2308 3.11151 13.2308 4.00001C13.2308 4.88851 12.9144 5.64909 12.2818 6.28176C11.6491 6.91442 10.8885 7.23076 10 7.23076ZM10.0007 6.23076C10.6144 6.23076 11.1395 6.01226 11.576 5.57526C12.0125 5.13826 12.2308 4.61292 12.2308 3.99926C12.2308 3.38559 12.0123 2.86051 11.5753 2.42401C11.1383 1.98751 10.6129 1.76926 9.99925 1.76926C9.38558 1.76926 8.8605 1.98776 8.424 2.42476C7.9875 2.86176 7.76925 3.38709 7.76925 4.00076C7.76925 4.61442 7.98775 5.13951 8.42475 5.57601C8.86175 6.01251 9.38708 6.23076 10.0007 6.23076Z" fill="#222222"/>
</svg>
